<svg width="16" height="20" viewBox="0 0 16 20" fill="none" xmlns="http://www.w3.org/2000/svg">
<g clip-path="url(#clip0_1017_20316)">
<path fill-rule="evenodd" clip-rule="evenodd" d="M8.00078 -3.49691e-08C8.44278 -1.56487e-08 8.80078 0.358 8.80078 0.8L8.80078 18.4C8.80078 18.842 8.44278 19.2 8.00078 19.2C7.55878 19.2 7.20078 18.842 7.20078 18.4L7.20078 0.8C7.20078 0.358 7.55878 -5.42895e-08 8.00078 -3.49691e-08Z" fill="black"/>
<path fill-rule="evenodd" clip-rule="evenodd" d="M15.7656 10.6343C16.0781 10.9468 16.0781 11.4533 15.7656 11.7658L8.56563 18.9658C8.25313 19.2783 7.74662 19.2783 7.43412 18.9658L0.234126 11.7658C-0.0783743 11.4533 -0.0783743 10.9468 0.234126 10.6343C0.546626 10.3218 1.05313 10.3218 1.36563 10.6343L8.00013 17.2688L14.6346 10.6343C14.9471 10.3218 15.4536 10.3218 15.7661 10.6343L15.7656 10.6343Z" fill="black"/>
</g>
<defs>
<clipPath id="clip0_1017_20316">
<rect width="19.2" height="16" fill="white" transform="translate(16) rotate(90)"/>
</clipPath>
</defs>
</svg>
