<svg width="16" height="20" viewBox="0 0 16 20" fill="none" xmlns="http://www.w3.org/2000/svg">
<g clip-path="url(#clip0_1017_20321)">
<path fill-rule="evenodd" clip-rule="evenodd" d="M7.99922 19.4004C7.55722 19.4004 7.19922 19.0424 7.19922 18.6004L7.19922 1.00039C7.19922 0.558392 7.55722 0.200392 7.99922 0.200392C8.44122 0.200392 8.79922 0.558392 8.79922 1.00039L8.79922 18.6004C8.79922 19.0424 8.44122 19.4004 7.99922 19.4004Z" fill="#000000"/>
<path fill-rule="evenodd" clip-rule="evenodd" d="M0.234375 8.76611C-0.078125 8.45361 -0.078125 7.94711 0.234375 7.63461L7.43437 0.434614C7.74687 0.122114 8.25338 0.122114 8.56588 0.434614L15.7659 7.63461C16.0784 7.94711 16.0784 8.45361 15.7659 8.76611C15.4534 9.07861 14.9469 9.07861 14.6344 8.76611L7.99987 2.13161L1.36537 8.76611C1.05287 9.07861 0.546375 9.07861 0.233875 8.76611L0.234375 8.76611Z" fill="#000000"/>
</g>
<defs>
<clipPath id="clip0_1017_20321">
<rect width="19.2" height="16" fill="white" transform="translate(0 19.4004) rotate(-90)"/>
</clipPath>
</defs>
</svg>
